<?xml version="1.0" standalone="no"?><!DOCTYPE svg PUBLIC "-//W3C//DTD SVG 1.1//EN" "http://www.w3.org/Graphics/SVG/1.1/DTD/svg11.dtd"><svg t="1510238643621" class="icon" style="" viewBox="0 0 1024 1024" version="1.1" xmlns="http://www.w3.org/2000/svg" p-id="1939" xmlns:xlink="http://www.w3.org/1999/xlink" width="64" height="64"><defs><style type="text/css"></style></defs><path d="M73.309091 456.145455H230.4c108.567273 0 184.226909-40.680727 229.399273-97.140364l2.327272-2.792727c10.472727-11.752727 18.571636-26.065455 26.949819-47.010909 21.922909-54.853818 97.815273-59.345455 126.114909-7.517091 19.316364 35.444364 32.791273 76.567273 38.353454 121.157818 9.146182 82.385455-15.685818 161.559273-70.818909 228.305454-91.508364 113.850182-214.830545 182.155636-351.720727 203.054546C307.246545 916.759273 405.015273 954.181818 512 954.181818c245.364364 0 442.181818-196.817455 442.181818-442.181818 0-244.526545-198.283636-442.181818-442.181818-442.181818-225.024 0-411.229091 168.261818-438.690909 386.327273zM0 512C0 228.072727 230.4 0 512 0s512 228.072727 512 512-228.072727 512-512 512S0 795.927273 0 512z m71.168 13.963636a440.622545 440.622545 0 0 0 96.954182 264.564364c130.56-6.865455 262.539636-61.626182 360.168727-183.109818 44.218182-53.527273 62.836364-114.036364 55.854546-176.872727-4.654545-37.236364-16.290909-69.818182-30.254546-95.418182-9.309091 23.272727-20.945455 46.545455-39.563636 67.490909-37.236364 46.545455-125.672727 123.345455-283.927273 123.345454H71.168z" p-id="1940" fill="#009A61"></path></svg>