<svg viewBox="0 0 1024 1024" xmlns="http://www.w3.org/2000/svg" width="200" height="200"><path d="M260.267 789.333c-21.334 0-38.4-17.066-38.4-38.4V691.2H38.4c-12.8 0-29.867-8.533-34.133-21.333C0 652.8 0 640 8.533 627.2L230.4 332.8c8.533-12.8 25.6-17.067 42.667-12.8 17.066 4.267 25.6 21.333 25.6 38.4v256H332.8c21.333 0 38.4 17.067 38.4 38.4s-17.067 38.4-38.4 38.4h-34.133v59.733c0 21.334-17.067 38.4-38.4 38.4zM115.2 610.133h106.667v-140.8L115.2 610.133zM913.067 742.4c-21.334 0-38.4-17.067-38.4-38.4v-59.733H691.2c-12.8 0-29.867-8.534-34.133-21.334-8.534-12.8-4.267-29.866 4.266-38.4l221.867-294.4c8.533-12.8 25.6-17.066 42.667-12.8 17.066 4.267 25.6 21.334 25.6 38.4v256H985.6c21.333 0 38.4 17.067 38.4 38.4s-17.067 38.4-38.4 38.4h-34.133v59.734c0 17.066-17.067 34.133-38.4 34.133zM768 567.467h106.667v-140.8L768 567.467zm-234.667 29.866c-46.933 0-85.333-25.6-119.466-68.266C384 490.667 371.2 435.2 371.2 384c0-55.467 17.067-106.667 42.667-145.067 29.866-42.666 72.533-68.266 119.466-68.266 46.934 0 85.334 25.6 119.467 68.266 29.867 38.4 42.667 93.867 42.667 145.067 0 55.467-17.067 106.667-42.667 145.067C618.667 576 576 597.333 533.333 597.333zm0-362.666c-55.466 0-98.133 68.266-98.133 149.333s46.933 149.333 98.133 149.333c55.467 0 98.134-68.266 98.134-149.333s-46.934-149.333-98.134-149.333z" fill="#978CFF"/><path d="M354.133 691.2a162.133 21.333 0 1 0 324.267 0 162.133 21.333 0 1 0-324.267 0ZM8.533 832a162.133 21.333 0 1 0 324.267 0 162.133 21.333 0 1 0-324.267 0Zm652.8-34.133a162.133 21.333 0 1 0 324.267 0 162.133 21.333 0 1 0-324.267 0Z" fill="#E3E5FC"/></svg>