<svg viewBox="0 0 1024 1024" xmlns="http://www.w3.org/2000/svg" width="128" height="128"><path d="M726.517 566.492C701.237 666.706 624.565 739.57 533.89 739.57c-111.2 0-201.356-109.581-201.466-244.807h402.935l-.001.062h200.557c-.839-222.397-181.368-402.429-403.962-402.429-223.113 0-403.981 180.868-403.981 403.981s180.869 403.981 403.981 403.981c199.196 0 364.706-144.177 397.902-333.866l-203.337.001zM533.891 249.458c90.863 0 167.664 73.168 192.783 173.703H341.107c25.119-100.534 101.922-173.703 192.785-173.703zM262.715 920.696c-149.852-101.65-150.701-362.067-1.899-581.657s390.907-315.201 540.758-213.55c77.876 52.827 115.49 148.539 112.79 259.11 12.485-132.556-25.765-248.316-115.209-308.988-159.532-108.217-421.493-.21-585.108 241.241S47.122 841.764 206.654 949.98c112.689 76.443 276.488 44.987 420.629-65.172-126.099 84.065-265.496 103.091-364.568 35.887z" fill="#1296db"/></svg>